<svg width="395.997412109375px" height="121.4262939453125px" xmlns="http://www.w3.org/2000/svg" viewBox="52.00129394531251 14.286853027343753 395.997412109375 121.4262939453125" style="background:#f2eddb" preserveAspectRatio="xMidYMid"><defs><filter id="editing-vintage" x="-100%" y="-100%" width="300%" height="300%"><feConvolveMatrix in="SourceGraphic" result="extrude" order="9,9" divisor="1" kernelMatrix="1,0,0,0,0,0,0,0,0,0,1,0,0,0,0,0,0,0,0,0,1,0,0,0,0,0,0,0,0,0,1,0,0,0,0,0,0,0,0,0,1,0,0,0,0,0,0,0,0,0,1,0,0,0,0,0,0,0,0,0,1,0,0,0,0,0,0,0,0,0,1,0,0,0,0,0,0,0,0,0,1"> </feConvolveMatrix><feFlood flood-color="#900" result="flood-extrude"></feFlood><feComposite operator="in" in="flood-extrude" in2="extrude" result="extrude-color"></feComposite><feOffset dx="5" dy="5" in="extrude-color" result="extrude-offset"></feOffset><feColorMatrix in="SourceGraphic" result="stroke" type="matrix" values="0 0 0 0 0 0 0 0 0 0 0 0 0 0 0 0 1 0 0 0 "></feColorMatrix><feColorMatrix in="SourceGraphic" result="fill" type="matrix" values="0 0 0 0 0 0 0 0 0 0 0 0 0 0 0 1 0 0 1 0 "></feColorMatrix><feConvolveMatrix in="stroke" result="inner-shadow" order="5,5" divisor="1" kernelMatrix="1 0 0 0 0 0 1 0 0 0 0 0 1 0 0 0 0 0 1 0 0 0 0 0 1 "></feConvolveMatrix><feOffset dx="1" dy="1" in="inner-shadow" result="offset"></feOffset><feComposite operator="in" in="offset" in2="SourceAlpha" result="comp"></feComposite><feFlood flood-color="#000" result="flood3"></feFlood><feComposite operator="in" in="flood3" in2="comp" result="comp2"></feComposite><feColorMatrix in="comp2" result="comp3" type="matrix" values="1 0 0 0 0 0 1 0 0 0 0 0 1 0 0 0 0 0 0.5 0 "></feColorMatrix><feFlood flood-color="#f00" result="flood1"></feFlood><feComposite operator="in" in="flood1" in2="fill" result="fill2"></feComposite><feFlood flood-color="#fff" result="flood2"></feFlood><feComposite operator="in" in="flood2" in2="stroke" result="stroke2"></feComposite><feMerge result="obj"><feMergeNode in="extrude-offset"></feMergeNode><feMergeNode in="fill2"></feMergeNode><feMergeNode in="comp3"></feMergeNode></feMerge><feConvolveMatrix in="SourceAlpha" result="shadow" order="9,9" divisor="1" kernelMatrix="1,0,0,0,0,0,0,0,0,0,1,0,0,0,0,0,0,0,0,0,1,0,0,0,0,0,0,0,0,0,1,0,0,0,0,0,0,0,0,0,1,0,0,0,0,0,0,0,0,0,1,0,0,0,0,0,0,0,0,0,1,0,0,0,0,0,0,0,0,0,1,0,0,0,0,0,0,0,0,0,1"></feConvolveMatrix><feOffset dx="15" dy="15" in="shadow" result="shadow-offset"></feOffset><feFlood flood-color="#444" result="flood-shadow"></feFlood><feComposite operator="in" in="flood-shadow" in2="shadow-offset" result="shadow-color"></feComposite><feMerge><feMergeNode in="shadow-color"></feMergeNode><feMergeNode in="obj"></feMergeNode></feMerge></filter></defs><g transform="translate(-9,-9)"><g filter="url(#editing-vintage)"><g transform="translate(111.11999368667603, 103.97906303405762)"><path d="M6.21-31.17L6.21-31.17L6.21-31.17Q4.03-32.83 4.03-36.38L4.03-36.38L4.03-36.38Q4.03-39.94 6.37-41.79L6.37-41.79L6.37-41.79Q8.70-43.65 12.74-43.65L12.74-43.65L12.74-43.65Q15.30-43.65 21.38-42.75L21.38-42.75L25.73-42.11L25.73-42.11Q27.90-41.86 30.18-41.86L30.18-41.86L30.18-41.86Q32.45-41.86 33.98-42.82L33.98-42.82L33.98-42.82Q36.29-40.77 36.29-37.82L36.29-37.82L36.29-37.82Q36.29-34.88 33.66-32.77L33.66-32.77L33.66-32.77Q30.98-30.53 27.52-30.53L27.52-30.53L27.52-30.53Q25.86-30.53 23.17-30.98L23.17-30.98L23.17-30.98Q20.03-21.12 20.03-14.27L20.03-14.27L20.03-14.27Q20.03-7.42 23.49-3.84L23.49-3.84L23.49-3.84Q21.89-0.96 19.52 0.16L19.52 0.16L19.52 0.16Q17.15 1.28 13.60 1.28L13.60 1.28L13.60 1.28Q10.05 1.28 7.84-0.67L7.84-0.67L7.84-0.67Q5.63-2.62 5.63-6.66L5.63-6.66L5.63-6.66Q5.63-11.33 8.19-19.01L8.19-19.01L8.19-19.01Q10.75-26.62 14.59-32.45L14.59-32.45L14.59-32.45Q12.74-32.64 10.82-32.64L10.82-32.64L10.82-32.64Q6.85-32.64 6.21-31.17ZM45.25 1.28L45.25 1.28L45.25 1.28Q31.17 1.28 31.17-11.97L31.17-11.97L31.17-11.97Q31.17-21.38 36.35-27.46L36.35-27.46L36.35-27.46Q41.86-33.92 51.39-33.92L51.39-33.92L51.39-33.92Q58.30-33.92 61.82-30.72L61.82-30.72L61.82-30.72Q65.34-27.52 65.34-20.80L65.34-20.80L65.34-20.80Q65.34-10.56 59.84-4.61L59.84-4.61L59.84-4.61Q54.46 1.28 45.25 1.28ZM46.91-26.56L46.91-26.56L46.91-26.56Q46.14-24.83 45.54-22.24L45.54-22.24L45.54-22.24Q44.93-19.65 44.16-15.55L44.16-15.55L44.16-15.55Q43.39-11.46 43.39-6.40L43.39-6.40L43.39-6.40Q43.39-4.74 43.94-3.65L43.94-3.65L43.94-3.65Q44.48-2.56 45.95-2.56L45.95-2.56L45.95-2.56Q47.42-2.56 48.35-3.26L48.35-3.26L48.35-3.26Q49.28-3.97 49.98-5.63L49.98-5.63L49.98-5.63Q51.26-8.58 52.29-14.05L52.29-14.05L52.29-14.05Q53.31-19.52 53.41-21.89L53.41-21.89L53.41-21.89Q53.50-24.26 53.50-26.02L53.50-26.02L53.50-26.02Q53.50-27.78 52.99-28.93L52.99-28.93L52.99-28.93Q52.48-30.08 51.04-30.08L51.04-30.08L51.04-30.08Q49.60-30.08 48.64-29.18L48.64-29.18L48.64-29.18Q47.68-28.29 46.91-26.56ZM89.28-33.92L89.28-33.92L89.28-33.92Q91.58-33.92 93.38-33.41L93.38-33.41L93.38-33.41Q93.44-33.66 93.57-34.37L93.57-34.37L93.89-36.35L93.89-36.35Q94.14-37.63 94.53-39.74L94.53-39.74L95.55-44.80L108.29-46.08L101.18-8.96L101.18-8.96Q101.12-8.58 101.12-7.94L101.12-7.94L101.12-6.91L101.12-6.91Q101.12-5.50 101.82-4.45L101.82-4.45L101.82-4.45Q102.53-3.39 103.68-3.39L103.68-3.39L103.68-3.39Q102.40-0.38 98.50 0.90L98.50 0.90L98.50 0.90Q97.15 1.28 95.26 1.28L95.26 1.28L95.26 1.28Q93.38 1.28 91.65 0.29L91.65 0.29L91.65 0.29Q89.92-0.70 89.41-2.37L89.41-2.37L89.41-2.37Q88.38-0.70 86.34 0.29L86.34 0.29L86.34 0.29Q84.29 1.28 81.31 1.28L81.31 1.28L81.31 1.28Q78.34 1.28 75.87 0.51L75.87 0.51L75.87 0.51Q73.41-0.26 71.87-1.92L71.87-1.92L71.87-1.92Q69.06-5.18 69.06-12.61L69.06-12.61L69.06-12.61Q69.06-22.21 74.69-28.03L74.69-28.03L74.69-28.03Q80.32-33.92 89.28-33.92ZM88.83-30.08L88.83-30.08L88.83-30.08Q86.46-30.08 85.18-27.52L85.18-27.52L85.18-27.52Q83.90-24.96 82.59-18.62L82.59-18.62L82.59-18.62Q81.28-12.29 81.28-6.59L81.28-6.59L81.28-6.59Q81.28-2.69 83.58-2.69L83.58-2.69L83.58-2.69Q85.63-2.69 87.07-4.74L87.07-4.74L87.07-4.74Q88.51-6.78 89.09-10.18L89.09-10.18L92.54-28.93L92.54-28.93Q91.20-30.08 88.83-30.08ZM123.07 1.28L123.07 1.28L123.07 1.28Q108.99 1.28 108.99-11.97L108.99-11.97L108.99-11.97Q108.99-21.38 114.18-27.46L114.18-27.46L114.18-27.46Q119.68-33.92 129.22-33.92L129.22-33.92L129.22-33.92Q136.13-33.92 139.65-30.72L139.65-30.72L139.65-30.72Q143.17-27.52 143.17-20.80L143.17-20.80L143.17-20.80Q143.17-10.56 137.66-4.61L137.66-4.61L137.66-4.61Q132.29 1.28 123.07 1.28ZM124.74-26.56L124.74-26.56L124.74-26.56Q123.97-24.83 123.36-22.24L123.36-22.24L123.36-22.24Q122.75-19.65 121.98-15.55L121.98-15.55L121.98-15.55Q121.22-11.46 121.22-6.40L121.22-6.40L121.22-6.40Q121.22-4.74 121.76-3.65L121.76-3.65L121.76-3.65Q122.30-2.56 123.78-2.56L123.78-2.56L123.78-2.56Q125.25-2.56 126.18-3.26L126.18-3.26L126.18-3.26Q127.10-3.97 127.81-5.63L127.81-5.63L127.81-5.63Q129.09-8.58 130.11-14.05L130.11-14.05L130.11-14.05Q131.14-19.52 131.23-21.89L131.23-21.89L131.23-21.89Q131.33-24.26 131.33-26.02L131.33-26.02L131.33-26.02Q131.33-27.78 130.82-28.93L130.82-28.93L130.82-28.93Q130.30-30.08 128.86-30.08L128.86-30.08L128.86-30.08Q127.42-30.08 126.46-29.18L126.46-29.18L126.46-29.18Q125.50-28.29 124.74-26.56ZM188.22 1.28L188.22 1.28L188.22 1.28Q180.03 1.28 179.26-10.37L179.26-10.37L168.26-10.37L168.26-10.37Q166.98-7.42 166.08-4.86L166.08-4.86L164.42 0L155.46 0L175.62-42.24L189.38-42.24L192.06-11.14L192.06-11.14Q192.70-4.42 195.26-2.43L195.26-2.43L195.26-2.43Q193.41 1.28 188.22 1.28ZM173.76-23.17L170.24-15.04L179.07-15.04L178.30-31.49L178.30-33.22L173.76-23.17ZM228.80-4.38L228.80-4.38L228.80-4.38Q226.11-1.66 222.43-0.19L222.43-0.19L222.43-0.19Q218.75 1.28 215.10 1.28L215.10 1.28L215.10 1.28Q211.46 1.28 210.18 0.64L210.18 0.64L208.19 11.52L195.20 12.80L204.03-32.64L214.46-33.73L213.63-29.31L213.63-29.31Q216.32-33.86 221.89-33.86L221.89-33.86L221.89-33.86Q228.16-33.86 231.49-29.82L231.49-29.82L231.49-29.82Q234.43-26.18 234.43-20.61L234.43-20.61L234.43-20.61Q234.43-15.04 232.96-11.07L232.96-11.07L232.96-11.07Q231.49-7.10 228.80-4.38ZM214.34-22.34L210.94-3.58L210.94-3.58Q212.29-2.43 213.95-2.43L213.95-2.43L213.95-2.43Q215.62-2.43 216.58-3.07L216.58-3.07L216.58-3.07Q217.54-3.71 218.24-4.99L218.24-4.99L218.24-4.99Q220.16-8.45 221.70-18.94L221.70-18.94L221.70-18.94Q222.14-22.02 222.14-25.02L222.14-25.02L222.14-25.02Q222.14-28.03 221.47-28.99L221.47-28.99L221.47-28.99Q220.80-29.95 219.52-29.95L219.52-29.95L219.52-29.95Q215.62-29.95 214.34-22.34L214.34-22.34ZM268.10-4.38L268.10-4.38L268.10-4.38Q265.41-1.66 261.73-0.19L261.73-0.19L261.73-0.19Q258.05 1.28 254.40 1.28L254.40 1.28L254.40 1.28Q250.75 1.28 249.47 0.64L249.47 0.64L247.49 11.52L234.50 12.80L243.33-32.64L253.76-33.73L252.93-29.31L252.93-29.31Q255.62-33.86 261.18-33.86L261.18-33.86L261.18-33.86Q267.46-33.86 270.78-29.82L270.78-29.82L270.78-29.82Q273.73-26.18 273.73-20.61L273.73-20.61L273.73-20.61Q273.73-15.04 272.26-11.07L272.26-11.07L272.26-11.07Q270.78-7.10 268.10-4.38ZM253.63-22.34L250.24-3.58L250.24-3.58Q251.58-2.43 253.25-2.43L253.25-2.43L253.25-2.43Q254.91-2.43 255.87-3.07L255.87-3.07L255.87-3.07Q256.83-3.71 257.54-4.99L257.54-4.99L257.54-4.99Q259.46-8.45 260.99-18.94L260.99-18.94L260.99-18.94Q261.44-22.02 261.44-25.02L261.44-25.02L261.44-25.02Q261.44-28.03 260.77-28.99L260.77-28.99L260.77-28.99Q260.10-29.95 258.82-29.95L258.82-29.95L258.82-29.95Q254.91-29.95 253.63-22.34L253.63-22.34Z" fill="#f00" stroke="#0f0" stroke-width="1.8"></path></g></g><g><g transform="translate(111.11999368667603, 104.19000053405762)"><path d="M6.21-31.17L6.21-31.17L6.21-31.17Q4.03-32.83 4.03-36.38L4.03-36.38L4.03-36.38Q4.03-39.94 6.37-41.79L6.37-41.79L6.37-41.79Q8.70-43.65 12.74-43.65L12.74-43.65L12.74-43.65Q15.30-43.65 21.38-42.75L21.38-42.75L25.73-42.11L25.73-42.11Q27.90-41.86 30.18-41.86L30.18-41.86L30.18-41.86Q32.45-41.86 33.98-42.82L33.98-42.82L33.98-42.82Q36.29-40.77 36.29-37.82L36.29-37.82L36.29-37.82Q36.29-34.88 33.66-32.77L33.66-32.77L33.66-32.77Q30.98-30.53 27.52-30.53L27.52-30.53L27.52-30.53Q25.86-30.53 23.17-30.98L23.17-30.98L23.17-30.98Q20.03-21.12 20.03-14.27L20.03-14.27L20.03-14.27Q20.03-7.42 23.49-3.84L23.49-3.84L23.49-3.84Q21.89-0.96 19.52 0.16L19.52 0.16L19.52 0.16Q17.15 1.28 13.60 1.28L13.60 1.28L13.60 1.28Q10.05 1.28 7.84-0.67L7.84-0.67L7.84-0.67Q5.63-2.62 5.63-6.66L5.63-6.66L5.63-6.66Q5.63-11.33 8.19-19.01L8.19-19.01L8.19-19.01Q10.75-26.62 14.59-32.45L14.59-32.45L14.59-32.45Q12.74-32.64 10.82-32.64L10.82-32.64L10.82-32.64Q6.85-32.64 6.21-31.17ZM45.25 1.28L45.25 1.28L45.25 1.28Q31.17 1.28 31.17-11.97L31.17-11.97L31.17-11.97Q31.17-21.38 36.35-27.46L36.35-27.46L36.35-27.46Q41.86-33.92 51.39-33.92L51.39-33.92L51.39-33.92Q58.30-33.92 61.82-30.72L61.82-30.72L61.82-30.72Q65.34-27.52 65.34-20.80L65.34-20.80L65.34-20.80Q65.34-10.56 59.84-4.61L59.84-4.61L59.84-4.61Q54.46 1.28 45.25 1.28ZM46.91-26.56L46.91-26.56L46.91-26.56Q46.14-24.83 45.54-22.24L45.54-22.24L45.54-22.24Q44.93-19.65 44.16-15.55L44.16-15.55L44.16-15.55Q43.39-11.46 43.39-6.40L43.39-6.40L43.39-6.40Q43.39-4.74 43.94-3.65L43.94-3.65L43.94-3.65Q44.48-2.56 45.95-2.56L45.95-2.56L45.95-2.56Q47.42-2.56 48.35-3.26L48.35-3.26L48.35-3.26Q49.28-3.97 49.98-5.63L49.98-5.63L49.98-5.63Q51.26-8.58 52.29-14.05L52.29-14.05L52.29-14.05Q53.31-19.52 53.41-21.89L53.41-21.89L53.41-21.89Q53.50-24.26 53.50-26.02L53.50-26.02L53.50-26.02Q53.50-27.78 52.99-28.93L52.99-28.93L52.99-28.93Q52.48-30.08 51.04-30.08L51.04-30.08L51.04-30.08Q49.60-30.08 48.64-29.18L48.64-29.18L48.64-29.18Q47.68-28.29 46.91-26.56ZM89.28-33.92L89.28-33.92L89.28-33.92Q91.58-33.92 93.38-33.41L93.38-33.41L93.38-33.41Q93.44-33.66 93.57-34.37L93.57-34.37L93.89-36.35L93.89-36.35Q94.14-37.63 94.53-39.74L94.53-39.74L95.55-44.80L108.29-46.08L101.18-8.96L101.18-8.96Q101.12-8.58 101.12-7.94L101.12-7.94L101.12-6.91L101.12-6.91Q101.12-5.50 101.82-4.45L101.82-4.45L101.82-4.45Q102.53-3.39 103.68-3.39L103.68-3.39L103.68-3.39Q102.40-0.38 98.50 0.90L98.50 0.90L98.50 0.90Q97.15 1.28 95.26 1.28L95.26 1.28L95.26 1.28Q93.38 1.28 91.65 0.29L91.65 0.29L91.65 0.29Q89.92-0.70 89.41-2.37L89.41-2.37L89.41-2.37Q88.38-0.70 86.34 0.29L86.34 0.29L86.34 0.29Q84.29 1.28 81.31 1.28L81.31 1.28L81.31 1.28Q78.34 1.28 75.87 0.51L75.87 0.51L75.87 0.51Q73.41-0.26 71.87-1.92L71.87-1.92L71.87-1.92Q69.06-5.18 69.06-12.61L69.06-12.61L69.06-12.61Q69.06-22.21 74.69-28.03L74.69-28.03L74.69-28.03Q80.32-33.92 89.28-33.92ZM88.83-30.08L88.83-30.08L88.83-30.08Q86.46-30.08 85.18-27.52L85.18-27.52L85.18-27.52Q83.90-24.96 82.59-18.62L82.59-18.62L82.59-18.62Q81.28-12.29 81.28-6.59L81.28-6.59L81.28-6.59Q81.28-2.69 83.58-2.69L83.58-2.69L83.58-2.69Q85.63-2.69 87.07-4.74L87.07-4.74L87.07-4.74Q88.51-6.78 89.09-10.18L89.09-10.18L92.54-28.93L92.54-28.93Q91.20-30.08 88.83-30.08ZM123.07 1.28L123.07 1.28L123.07 1.28Q108.99 1.28 108.99-11.97L108.99-11.97L108.99-11.97Q108.99-21.38 114.18-27.46L114.18-27.46L114.18-27.46Q119.68-33.92 129.22-33.92L129.22-33.92L129.22-33.92Q136.13-33.92 139.65-30.72L139.65-30.72L139.65-30.72Q143.17-27.52 143.17-20.80L143.17-20.80L143.17-20.80Q143.17-10.56 137.66-4.61L137.66-4.61L137.66-4.61Q132.29 1.28 123.07 1.28ZM124.74-26.56L124.74-26.56L124.74-26.56Q123.97-24.83 123.36-22.24L123.36-22.24L123.36-22.24Q122.75-19.65 121.98-15.55L121.98-15.55L121.98-15.55Q121.22-11.46 121.22-6.40L121.22-6.40L121.22-6.40Q121.22-4.74 121.76-3.65L121.76-3.65L121.76-3.65Q122.30-2.56 123.78-2.56L123.78-2.56L123.78-2.56Q125.25-2.56 126.18-3.26L126.18-3.26L126.18-3.26Q127.10-3.97 127.81-5.63L127.81-5.63L127.81-5.63Q129.09-8.58 130.11-14.05L130.11-14.05L130.11-14.05Q131.14-19.52 131.23-21.89L131.23-21.89L131.23-21.89Q131.33-24.26 131.33-26.02L131.33-26.02L131.33-26.02Q131.33-27.78 130.82-28.93L130.82-28.93L130.82-28.93Q130.30-30.08 128.86-30.08L128.86-30.08L128.86-30.08Q127.42-30.08 126.46-29.18L126.46-29.18L126.46-29.18Q125.50-28.29 124.74-26.56ZM188.22 1.28L188.22 1.28L188.22 1.28Q180.03 1.28 179.26-10.37L179.26-10.37L168.26-10.37L168.26-10.37Q166.98-7.42 166.08-4.86L166.08-4.86L164.42 0L155.46 0L175.62-42.24L189.38-42.24L192.06-11.14L192.06-11.14Q192.70-4.42 195.26-2.43L195.26-2.43L195.26-2.43Q193.41 1.28 188.22 1.28ZM173.76-23.17L170.24-15.04L179.07-15.04L178.30-31.49L178.30-33.22L173.76-23.17ZM228.80-4.38L228.80-4.38L228.80-4.38Q226.11-1.66 222.43-0.19L222.43-0.19L222.43-0.19Q218.75 1.28 215.10 1.28L215.10 1.28L215.10 1.28Q211.46 1.28 210.18 0.64L210.18 0.64L208.19 11.52L195.20 12.80L204.03-32.64L214.46-33.73L213.63-29.31L213.63-29.31Q216.32-33.86 221.89-33.86L221.89-33.86L221.89-33.86Q228.16-33.86 231.49-29.82L231.49-29.82L231.49-29.82Q234.43-26.18 234.43-20.61L234.43-20.61L234.43-20.61Q234.43-15.04 232.96-11.07L232.96-11.07L232.96-11.07Q231.49-7.10 228.80-4.38ZM214.34-22.34L210.94-3.58L210.94-3.58Q212.29-2.43 213.95-2.43L213.95-2.43L213.95-2.43Q215.62-2.43 216.58-3.07L216.58-3.07L216.58-3.07Q217.54-3.71 218.24-4.99L218.24-4.99L218.24-4.99Q220.16-8.45 221.70-18.94L221.70-18.94L221.70-18.94Q222.14-22.02 222.14-25.02L222.14-25.02L222.14-25.02Q222.14-28.03 221.47-28.99L221.47-28.99L221.47-28.99Q220.80-29.95 219.52-29.95L219.52-29.95L219.52-29.95Q215.62-29.95 214.34-22.34L214.34-22.34ZM268.10-4.38L268.10-4.38L268.10-4.38Q265.41-1.66 261.73-0.19L261.73-0.19L261.73-0.19Q258.05 1.28 254.40 1.28L254.40 1.28L254.40 1.28Q250.75 1.28 249.47 0.64L249.47 0.64L247.49 11.52L234.50 12.80L243.33-32.64L253.76-33.73L252.93-29.31L252.93-29.31Q255.62-33.86 261.18-33.86L261.18-33.86L261.18-33.86Q267.46-33.86 270.78-29.82L270.78-29.82L270.78-29.82Q273.73-26.18 273.73-20.61L273.73-20.61L273.73-20.61Q273.73-15.04 272.26-11.07L272.26-11.07L272.26-11.07Q270.78-7.10 268.10-4.38ZM253.63-22.34L250.24-3.58L250.24-3.58Q251.58-2.43 253.25-2.43L253.25-2.43L253.25-2.43Q254.91-2.43 255.87-3.07L255.87-3.07L255.87-3.07Q256.83-3.71 257.54-4.99L257.54-4.99L257.54-4.99Q259.46-8.45 260.99-18.94L260.99-18.94L260.99-18.94Q261.44-22.02 261.44-25.02L261.44-25.02L261.44-25.02Q261.44-28.03 260.77-28.99L260.77-28.99L260.77-28.99Q260.10-29.95 258.82-29.95L258.82-29.95L258.82-29.95Q254.91-29.95 253.63-22.34L253.63-22.34Z" fill="none" stroke="#fff" stroke-width="2.1"></path></g></g></g><style>text {
  font-size: 64px;
  font-family: Arial Black;
  dominant-baseline: central;
  text-anchor: middle;
}</style></svg>